<?xml version="1.0" encoding="UTF-8"?>

<svg xmlns="http://www.w3.org/2000/svg" viewBox="0 0 1024 1024" role="img" aria-label="UKTI">
  <rect width="1024" height="1024" fill="#F5F1EA"></rect>
  <g transform="translate(272 272) scale(2)">
    <g fill="#0D0B0A">
      <path d="M 50 42 L 50 148 C 50 186, 78 210, 120 210 C 162 210, 190 186, 190 148 L 190 42 L 176 42 L 176 148 C 176 178, 154 196, 120 196 C 86 196, 64 178, 64 148 L 64 42 Z"></path>
      <path d="M 38 42 L 78 42 L 78 48 L 64 48 L 50 48 L 38 48 Z"></path>
      <path d="M 162 42 L 202 42 L 202 48 L 190 48 L 176 48 L 162 48 Z"></path>
    </g>
  </g>
</svg>